<svg xmlns="http://www.w3.org/2000/svg" width="77" height="61" viewBox="0 0 77 61"><g fill="none" fill-rule="evenodd"><path fill="#FFF" d="M50.41 12.908c1.044-1.127 1.585-2.557 1.625-4.29.04-1.731-.621-3.201-1.985-4.41C49.088 3.403 48.005 3 46.802 3c-.803 0-1.585.181-2.347.544-.762.362-1.383.825-1.864 1.39L38.5 9.161l-4.09-4.229c-.482-.564-1.103-1.027-1.865-1.39A5.405 5.405 0 0 0 30.198 3c-1.203 0-2.285.403-3.248 1.208-1.364 1.209-2.025 2.679-1.985 4.41.04 1.733.581 3.163 1.624 4.29L38.5 25.475l11.91-12.567zM26.47 29.221l5.173 7.008c2.005 2.82 3.008 5.921 3.008 9.304v14.5c0 .242-.1.464-.3.665-.201.201-.422.302-.663.302h-1.924c-.241 0-.462-.1-.662-.302-.2-.201-.301-.423-.301-.665v-14.5c0-2.577-.762-4.914-2.286-7.008l-5.173-7.008c-.321-.484-.742-.766-1.264-.846a1.877 1.877 0 0 0-1.443.362c-.442.323-.682.745-.722 1.27-.04.523.06.986.3 1.389l3.73 5.316c.802 1.128 1.043 2.276.722 3.444-.32 1.168-1.023 2.115-2.105 2.84-1.083.725-2.266 1.027-3.55.906-1.283-.12-2.446-.826-3.489-2.115L7.7 34.658V16.654c0-.886-.32-1.49-.963-1.812-.641-.323-1.283-.323-1.925 0-.641.322-.962.886-.962 1.691v20.542c0 .483.16.886.481 1.208l12.753 16.192c1.204 1.45 1.925 3.262 2.166 5.438 0 .322-.1.584-.3.785-.201.201-.422.302-.662.302h-1.925c-.241 0-.462-.08-.662-.242a.745.745 0 0 1-.301-.604c-.24-1.37-.642-2.457-1.203-3.262L1.323 40.7A5.461 5.461 0 0 1 0 37.075V16.533c0-1.61.582-2.98 1.745-4.108 1.163-1.128 2.526-1.692 4.09-1.692s2.908.604 4.03 1.813c1.124 1.208 1.685 2.618 1.685 4.229v16.554l7.46 8.821c.24.322.56.443.962.363.4-.081.682-.282.842-.605.16-.322.12-.684-.12-1.087l-3.49-4.713c-.801-1.127-1.182-2.396-1.142-3.806.04-1.41.501-2.598 1.383-3.564 1.444-1.531 3.128-2.175 5.053-1.934 1.685.242 3.008 1.047 3.97 2.417zM77 16.533v20.542c0 1.37-.401 2.578-1.203 3.625L62.923 56.892c-.641.805-1.042 1.893-1.203 3.262-.08.242-.2.443-.36.604a.814.814 0 0 1-.602.242h-1.925c-.321 0-.582-.1-.782-.302-.2-.201-.26-.463-.18-.785.16-2.175.841-3.988 2.045-5.438l12.873-16.192c.24-.322.361-.725.361-1.208V16.533c0-.805-.32-1.37-.963-1.691-.641-.323-1.283-.323-1.924 0-.642.322-.963.926-.963 1.812v18.004l-7.82 9.425c-1.043 1.209-2.206 1.893-3.49 2.055-1.283.16-2.466-.121-3.549-.846-1.082-.725-1.784-1.672-2.105-2.84-.32-1.168-.08-2.356.722-3.564l3.73-5.196a1.72 1.72 0 0 0 .36-1.39 1.87 1.87 0 0 0-.782-1.269 1.877 1.877 0 0 0-1.443-.362c-.522.08-.943.362-1.264.846l-5.173 7.008c-1.524 2.094-2.286 4.43-2.286 7.008v14.5c0 .242-.1.464-.3.665-.201.201-.422.302-.663.302h-1.925c-.24 0-.46-.1-.661-.302-.2-.201-.301-.423-.301-.665v-14.5c0-3.464 1.043-6.565 3.128-9.304l5.053-7.008c.963-1.37 2.286-2.175 3.97-2.417 1.926-.241 3.61.403 5.054 1.934.882.966 1.343 2.154 1.383 3.564.04 1.41-.34 2.679-1.143 3.806l-3.489 4.713c-.24.403-.28.765-.12 1.087.16.323.441.524.842.605.401.08.722-.04.963-.363l7.459-8.82V16.774c0-1.611.561-3.02 1.684-4.23 1.123-1.207 2.467-1.812 4.03-1.812 1.565 0 2.928.564 4.091 1.692C76.418 13.553 77 14.922 77 16.533z"/><path fill="#640DE0" stroke="#FFA500" stroke-width="4" d="M37.978 29a.093.093 0 0 0 .005 0zm.046-.017a.591.591 0 0 0 .083-.074L50.96 15.133c1.458-1.624 2.128-3.555 2.03-5.908-.095-2.324-.936-4.125-2.56-5.534l-.046-.041C49.174 2.533 47.844 2 46.304 2c-1.048 0-2.042.22-3 .663-1.004.465-1.847 1.051-2.48 1.698l-2.79 3.12-1.491-1.667-1.241-1.39c-.693-.71-1.535-1.296-2.54-1.761a7.039 7.039 0 0 0-3-.663c-1.54 0-2.869.533-4.125 1.69-1.632 1.416-2.494 3.229-2.622 5.562-.128 2.327.549 4.234 2.065 5.852L37.96 28.91l.064.074z"/></g></svg>